<svg width="22" height="21" viewBox="0 0 22 21" fill="none" xmlns="http://www.w3.org/2000/svg">
<path d="M11.5 2H15.7C17.3802 2 18.2202 2 18.862 2.32698C19.4265 2.6146 19.8854 3.07354 20.173 3.63803C20.5 4.27976 20.5 5.11984 20.5 6.8V15.2C20.5 16.8802 20.5 17.7202 20.173 18.362C19.8854 18.9265 19.4265 19.3854 18.862 19.673C18.2202 20 17.3802 20 15.7 20H7.3C5.61984 20 4.77976 20 4.13803 19.673C3.57354 19.3854 3.1146 18.9265 2.82698 18.362C2.5 17.7202 2.5 16.8802 2.5 15.2V11M7.5 12V16M15.5 10V16M11.5 6V16M1.5 4L4.5 1M4.5 1L7.5 4M4.5 1L4.5 7" stroke="#4C4DDC" stroke-width="2" stroke-linecap="round" stroke-linejoin="round"/>
</svg>
