<svg width="29" height="39" viewBox="0 0 29 39" fill="none" xmlns="http://www.w3.org/2000/svg">
<path fill-rule="evenodd" clip-rule="evenodd" d="M19.0924 1C19.5754 1 19.9674 1.392 19.9674 1.875L19.968 2.86411C21.6714 2.9809 23.0862 3.56439 24.0875 4.56778C25.1807 5.66562 25.7558 7.24412 25.75 9.13762V19.7811C25.75 23.6684 23.2813 26.0834 19.3088 26.0834H9.44117C5.46867 26.0834 3 23.6346 3 19.6924V9.13528C3 5.46867 5.20157 3.1151 8.79213 2.86451L8.79285 1.875C8.79285 1.392 9.18485 1 9.66785 1C10.1509 1 10.5429 1.392 10.5429 1.875L10.5425 2.84217H18.2168L18.2174 1.875C18.2174 1.392 18.6094 1 19.0924 1ZM24 11.388H4.75V19.6924C4.75 22.6861 6.416 24.3334 9.44117 24.3334H19.3088C22.334 24.3334 24 22.7164 24 19.7811L24 11.388ZM19.5681 18.729C20.0511 18.729 20.4431 19.121 20.4431 19.604C20.4431 20.087 20.0511 20.479 19.5681 20.479C19.0851 20.479 18.6884 20.087 18.6884 19.604C18.6884 19.121 19.0746 18.729 19.5576 18.729H19.5681ZM14.391 18.729C14.874 18.729 15.266 19.121 15.266 19.604C15.266 20.087 14.874 20.479 14.391 20.479C13.908 20.479 13.5113 20.087 13.5113 19.604C13.5113 19.121 13.8975 18.729 14.3805 18.729H14.391ZM9.20305 18.729C9.68605 18.729 10.0781 19.121 10.0781 19.604C10.0781 20.087 9.68605 20.479 9.20305 20.479C8.72005 20.479 8.32222 20.087 8.32222 19.604C8.32222 19.121 8.70955 18.729 9.19255 18.729H9.20305ZM19.5681 14.1945C20.0511 14.1945 20.4431 14.5865 20.4431 15.0695C20.4431 15.5525 20.0511 15.9445 19.5681 15.9445C19.0851 15.9445 18.6884 15.5525 18.6884 15.0695C18.6884 14.5865 19.0746 14.1945 19.5576 14.1945H19.5681ZM14.391 14.1945C14.874 14.1945 15.266 14.5865 15.266 15.0695C15.266 15.5525 14.874 15.9445 14.391 15.9445C13.908 15.9445 13.5113 15.5525 13.5113 15.0695C13.5113 14.5865 13.8975 14.1945 14.3805 14.1945H14.391ZM9.20305 14.1945C9.68605 14.1945 10.0781 14.5865 10.0781 15.0695C10.0781 15.5525 9.68605 15.9445 9.20305 15.9445C8.72005 15.9445 8.32222 15.5525 8.32222 15.0695C8.32222 14.5865 8.70955 14.1945 9.19255 14.1945H9.20305ZM18.2168 4.59217H10.5425L10.5429 5.7145C10.5429 6.1975 10.1509 6.5895 9.66785 6.5895C9.18485 6.5895 8.79285 6.1975 8.79285 5.7145L8.79223 4.61865C6.17863 4.83821 4.75 6.4225 4.75 9.13528V9.638H24L24 9.13528C24.0047 7.69445 23.6173 6.57445 22.8485 5.80445C22.1736 5.12756 21.187 4.7233 19.9684 4.61921L19.9674 5.7145C19.9674 6.1975 19.5754 6.5895 19.0924 6.5895C18.6094 6.5895 18.2174 6.1975 18.2174 5.7145L18.2168 4.59217Z" fill="#4C4DDC"/>
<circle cx="14" cy="36" r="3" fill="#4C4DDC"/>
</svg>
