<svg width="25" height="24" viewBox="0 0 25 24" fill="none" xmlns="http://www.w3.org/2000/svg">
<path d="M20.25 12.5V6.8C20.25 5.11984 20.25 4.27976 19.923 3.63803C19.6354 3.07354 19.1765 2.6146 18.612 2.32698C17.9702 2 17.1302 2 15.45 2H9.05C7.36984 2 6.52976 2 5.88803 2.32698C5.32354 2.6146 4.8646 3.07354 4.57698 3.63803C4.25 4.27976 4.25 5.11984 4.25 6.8V17.2C4.25 18.8802 4.25 19.7202 4.57698 20.362C4.8646 20.9265 5.32354 21.3854 5.88803 21.673C6.52976 22 7.36984 22 9.05 22H12.25M14.75 19L16.75 21L21.25 16.5" stroke="#4C4DDC" stroke-width="2" stroke-linecap="round" stroke-linejoin="round"/>
<path d="M6.78953 10.988C6.80153 10.512 6.93953 10.148 7.20353 9.896C7.47153 9.644 7.84953 9.518 8.33753 9.518C8.65353 9.518 8.92353 9.572 9.14753 9.68C9.37153 9.788 9.53953 9.934 9.65153 10.118C9.76753 10.302 9.82553 10.51 9.82553 10.742C9.82553 11.022 9.75953 11.242 9.62753 11.402C9.49553 11.558 9.34753 11.664 9.18353 11.72V11.744C9.66353 11.924 9.90353 12.258 9.90353 12.746C9.90353 13.002 9.84353 13.228 9.72353 13.424C9.60353 13.62 9.43153 13.772 9.20753 13.88C8.98753 13.988 8.72553 14.042 8.42153 14.042C7.90153 14.042 7.49353 13.918 7.19753 13.67C6.90153 13.422 6.74953 13.034 6.74153 12.506H8.03753C8.02953 12.65 8.04953 12.76 8.09753 12.836C8.14953 12.908 8.23753 12.944 8.36153 12.944C8.43353 12.944 8.49353 12.918 8.54153 12.866C8.58953 12.81 8.61353 12.738 8.61353 12.65C8.61353 12.538 8.57553 12.454 8.49953 12.398C8.42753 12.338 8.30353 12.308 8.12753 12.308H7.90553V11.234H8.12153C8.39353 11.25 8.52953 11.142 8.52953 10.91C8.52953 10.81 8.50753 10.736 8.46353 10.688C8.42353 10.64 8.37153 10.616 8.30753 10.616C8.15953 10.616 8.08553 10.74 8.08553 10.988H6.78953ZM12.4009 10.946C12.3769 10.826 12.3409 10.738 12.2929 10.682C12.2489 10.626 12.1789 10.598 12.0829 10.598C11.9309 10.598 11.8289 10.676 11.7769 10.832C11.7289 10.984 11.7049 11.222 11.7049 11.546C11.7769 11.434 11.8809 11.346 12.0169 11.282C12.1529 11.218 12.3069 11.186 12.4789 11.186C12.8629 11.186 13.1689 11.304 13.3969 11.54C13.6289 11.776 13.7449 12.118 13.7449 12.566C13.7449 12.866 13.6809 13.128 13.5529 13.352C13.4289 13.572 13.2509 13.742 13.0189 13.862C12.7869 13.982 12.5129 14.042 12.1969 14.042C11.5689 14.042 11.1329 13.85 10.8889 13.466C10.6449 13.078 10.5229 12.536 10.5229 11.84C10.5229 11.296 10.5789 10.856 10.6909 10.52C10.8029 10.184 10.9789 9.936 11.2189 9.776C11.4629 9.616 11.7789 9.536 12.1669 9.536C12.6429 9.536 13.0009 9.672 13.2409 9.944C13.4849 10.216 13.6189 10.55 13.6429 10.946H12.4009ZM12.1489 12.206C12.0409 12.206 11.9549 12.236 11.8909 12.296C11.8269 12.356 11.7949 12.44 11.7949 12.548C11.7949 12.668 11.8249 12.758 11.8849 12.818C11.9489 12.874 12.0369 12.902 12.1489 12.902C12.2609 12.902 12.3469 12.874 12.4069 12.818C12.4709 12.758 12.5029 12.668 12.5029 12.548C12.5029 12.44 12.4709 12.356 12.4069 12.296C12.3429 12.236 12.2569 12.206 12.1489 12.206ZM14.1998 11.744C14.1998 11.052 14.3458 10.508 14.6378 10.112C14.9338 9.716 15.3878 9.518 15.9998 9.518C16.6078 9.518 17.0598 9.718 17.3558 10.118C17.6518 10.514 17.7998 11.056 17.7998 11.744C17.7998 12.436 17.6518 12.982 17.3558 13.382C17.0598 13.778 16.6078 13.976 15.9998 13.976C15.3878 13.976 14.9338 13.778 14.6378 13.382C14.3458 12.982 14.1998 12.436 14.1998 11.744ZM16.4858 11.744C16.4858 11.424 16.4538 11.184 16.3898 11.024C16.3258 10.86 16.1958 10.778 15.9998 10.778C15.7998 10.778 15.6678 10.86 15.6038 11.024C15.5398 11.184 15.5078 11.424 15.5078 11.744C15.5078 12.068 15.5398 12.312 15.6038 12.476C15.6678 12.636 15.7998 12.716 15.9998 12.716C16.1958 12.716 16.3258 12.636 16.3898 12.476C16.4538 12.312 16.4858 12.068 16.4858 11.744Z" fill="#4C4DDC"/>
</svg>
