<svg width="28" height="28" viewBox="0 0 28 28" fill="none" xmlns="http://www.w3.org/2000/svg">
<path d="M18.3323 24.2429H18.3323V24.2355V20.6682C18.3323 19.9633 18.0502 19.2888 17.5504 18.7926C17.0508 18.2967 16.3747 18.0193 15.6714 18.0193H12.3182C10.8555 18.0193 9.65723 19.1984 9.65723 20.6682V23.5131L9.63115 23.5218L9.62592 24.2386C9.62424 24.4687 9.43382 24.6666 9.18433 24.6666H6.94886C5.26733 24.6666 3.91666 23.3153 3.91666 21.6637V11.5243C3.93306 10.9613 4.20236 10.4327 4.65468 10.0846L4.66227 10.0788L4.66975 10.0728L12.2745 3.98548L12.2884 3.97441L12.3018 3.96285C13.2504 3.14674 14.6539 3.12128 15.6321 3.90302L15.6351 3.90542L23.4077 10.0679C23.8373 10.4285 24.0833 10.9568 24.0833 11.5113V21.6741C24.0833 22.4668 23.7657 23.2283 23.1981 23.7903C22.6302 24.3526 21.8588 24.6687 21.0537 24.6666H21.0511H18.7634C18.6462 24.6666 18.5352 24.6201 18.4549 24.5397C18.3747 24.4596 18.3315 24.3526 18.3323 24.2429Z" fill="white" stroke="#1E1E1E" stroke-width="2"/>
</svg>
