<svg width="29" height="28" viewBox="0 0 29 28" fill="none" xmlns="http://www.w3.org/2000/svg">
<path fill-rule="evenodd" clip-rule="evenodd" d="M19.9254 1.16669C24.1569 1.16669 27 4.13702 27 8.55752V18.8592C27 23.2797 24.1569 26.25 19.9254 26.25H8.99135C4.75985 26.25 1.91669 23.2797 1.91669 18.8592V8.55752C1.91669 4.13702 4.75985 1.16669 8.99135 1.16669H19.9254ZM19.9254 2.91669H8.99135C5.75735 2.91669 3.66669 5.12985 3.66669 8.55752V18.8592C3.66669 22.2869 5.75735 24.5 8.99135 24.5H19.9254C23.1605 24.5 25.25 22.2869 25.25 18.8592V8.55752C25.25 5.12985 23.1605 2.91669 19.9254 2.91669ZM9.05797 10.7363C9.54097 10.7363 9.93297 11.1283 9.93297 11.6113V19.6146C9.93297 20.0976 9.54097 20.4896 9.05797 20.4896C8.57497 20.4896 8.18297 20.0976 8.18297 19.6146V11.6113C8.18297 11.1283 8.57497 10.7363 9.05797 10.7363ZM14.5028 6.90494C14.9858 6.90494 15.3778 7.29694 15.3778 7.77994V19.6134C15.3778 20.0964 14.9858 20.4884 14.5028 20.4884C14.0198 20.4884 13.6278 20.0964 13.6278 19.6134V7.77994C13.6278 7.29694 14.0198 6.90494 14.5028 6.90494ZM19.8582 14.9654C20.3412 14.9654 20.7332 15.3574 20.7332 15.8404V19.6134C20.7332 20.0964 20.3412 20.4884 19.8582 20.4884C19.3752 20.4884 18.9832 20.0964 18.9832 19.6134V15.8404C18.9832 15.3574 19.3752 14.9654 19.8582 14.9654Z" fill="#1E1E1E"/>
</svg>
