<svg width="20" height="20" viewBox="0 0 20 20" fill="none" xmlns="http://www.w3.org/2000/svg">
<path d="M4.55688 16.5304C4.57459 16.5005 4.59273 16.4709 4.6113 16.4413C5.9658 14.2881 6.74991 11.7418 6.74991 9C6.74991 6.79086 8.54077 5 10.7499 5C12.959 5 14.7499 6.79086 14.7499 9C14.7499 10.017 14.6807 11.0186 14.5466 12M12.4292 18.8436C13.0409 17.6226 13.5424 16.3369 13.9207 15M17.7597 16.132C18.4047 13.8657 18.75 11.4732 18.75 9C18.75 4.58172 15.1683 1 10.75 1C9.29285 1 7.92669 1.38958 6.75 2.07026M1.75 13.3641C2.39066 12.0454 2.75 10.5646 2.75 9C2.75 7.54285 3.13958 6.17669 3.82026 5M10.7499 9C10.7499 12.5172 9.74109 15.7988 7.99707 18.5712" stroke="#0A0A0A" stroke-width="2" stroke-linecap="round" stroke-linejoin="round"/>
</svg>
