<svg width="20" height="28" viewBox="0 0 20 28" fill="none" xmlns="http://www.w3.org/2000/svg">
<path fill-rule="evenodd" clip-rule="evenodd" d="M4.88139 6.81933C4.88139 4.14299 7.04323 1.97091 9.72982 1.97091C12.404 1.97091 14.5772 4.14335 14.5782 6.81733C14.5663 9.42498 12.5297 11.5377 9.96239 11.653C9.80707 11.6417 9.64243 11.6423 9.48659 11.6531C6.91678 11.539 4.88139 9.4249 4.88139 6.81933ZM9.72982 0C5.95184 0 2.91049 3.05738 2.91049 6.81933C2.91049 10.5028 5.81376 13.502 9.47334 13.625C9.51415 13.6263 9.55501 13.6252 9.59567 13.6215C9.68395 13.6135 9.77863 13.6143 9.84199 13.6206C9.88557 13.625 9.92939 13.6264 9.97316 13.625C13.6335 13.5019 16.5338 10.503 16.5491 6.82344L16.5492 6.81933C16.5492 3.05594 13.4932 0 9.72982 0ZM17.0701 16.669C15.0735 15.3355 12.4899 14.6997 9.95636 14.6997C7.42251 14.6997 4.83394 15.3356 2.82567 16.6672L2.82206 16.6696C1.02808 17.8705 0 19.548 0 21.3498C0 23.152 1.02843 24.8266 2.82342 26.0211C4.82598 27.3606 7.4123 28 9.94651 28C12.4812 28 15.0682 27.3602 17.071 26.0202C18.8649 24.8193 19.893 23.1418 19.893 21.34C19.893 19.538 18.8648 17.8635 17.0701 16.669ZM1.97091 21.3498C1.97091 20.3567 2.5322 19.236 3.91663 18.3086C5.53465 17.2364 7.72145 16.6706 9.95636 16.6706C12.1924 16.6706 14.3719 17.237 15.9754 18.308L15.9769 18.309C17.361 19.2298 17.9221 20.347 17.9221 21.34C17.9221 22.3335 17.3603 23.4547 15.9746 24.3824C14.364 25.46 12.1813 26.0291 9.94651 26.0291C7.71161 26.0291 5.52886 25.4599 3.91826 24.3823L3.9161 24.3808C2.53196 23.46 1.97091 22.3428 1.97091 21.3498Z" fill="#1E1E1E"/>
</svg>
